<svg width="167" height="46" viewBox="0 0 167 46" fill="none" xmlns="http://www.w3.org/2000/svg">
<g id="logo">
<g id="NEATLY">
<path d="M25.1016 36.838V36.5019H27.0247C27.4296 36.5019 27.767 36.4571 28.0369 36.3675C28.3293 36.2554 28.543 36.0538 28.6779 35.7625C28.8129 35.4488 28.8804 35.0118 28.8804 34.4517V15.0919C28.8804 14.5541 28.8129 14.1508 28.6779 13.8819C28.5655 13.613 28.3855 13.4337 28.1381 13.3441C27.9132 13.2321 27.6433 13.176 27.3284 13.176H25.1016V12.8399H34.6161L45.4464 30.3511V15.0919C45.4464 14.5989 45.3789 14.218 45.2439 13.9491C45.1315 13.6802 44.9628 13.4897 44.7378 13.3777C44.5129 13.2433 44.243 13.176 43.9281 13.176H41.4314V12.8399H49.6975V13.176H47.3358C46.9984 13.176 46.706 13.2433 46.4586 13.3777C46.2336 13.5122 46.0649 13.725 45.9525 14.0163C45.84 14.3076 45.7838 14.7109 45.7838 15.2263V36.838H43.0171L29.2178 14.5205V34.4517C29.2178 35.0118 29.2627 35.4488 29.3527 35.7625C29.4652 36.0538 29.6339 36.2554 29.8588 36.3675C30.0837 36.4571 30.3761 36.5019 30.736 36.5019H33.2327V36.838H25.1016Z" fill="#465C50"/>
<path d="M50.6367 36.838V36.5019H52.02C52.3349 36.5019 52.6048 36.4459 52.8297 36.3339C53.0547 36.1994 53.2234 35.9978 53.3358 35.7289C53.4708 35.46 53.5383 35.1239 53.5383 34.7205V15.1255C53.5383 14.5429 53.4708 14.1171 53.3358 13.8483C53.2009 13.5794 53.0097 13.4001 52.7623 13.3105C52.5373 13.2209 52.2787 13.176 51.9863 13.176H50.6367V12.8399H69.2945L69.5307 19.1588H69.1933L69.0921 18.0832C68.9796 16.8732 68.7322 15.9097 68.3498 15.1927C67.9675 14.4533 67.3939 13.9379 66.6291 13.6466C65.8869 13.3329 64.9084 13.176 63.6938 13.176H59.8475V24.1332H67.5738V24.4693H59.8475V36.5019H64.7397C65.9768 36.5019 66.9665 36.3451 67.7088 36.0314C68.4735 35.7177 69.0471 35.2023 69.4295 34.4853C69.8119 33.7682 70.048 32.7935 70.138 31.5611L70.2392 30.5192H70.5766L70.3405 36.838H50.6367Z" fill="#465C50"/>
<path d="M71.5817 36.838V36.5019H72.7963C73.2012 36.5019 73.5611 36.4459 73.876 36.3339C74.1909 36.1994 74.472 35.9641 74.7194 35.628C74.9894 35.2695 75.2255 34.7766 75.428 34.1492L81.8384 12.8399H86.6969L93.7147 34.3172C93.9171 34.8326 94.1308 35.2583 94.3557 35.5944C94.5807 35.9081 94.8393 36.1434 95.1317 36.3002C95.4466 36.4347 95.784 36.5019 96.1439 36.5019H96.3126V36.838H84.7738V36.5019H86.1908C86.6857 36.5019 87.0231 36.4011 87.203 36.1994C87.3829 35.9978 87.4729 35.7289 87.4729 35.3928C87.4729 35.2359 87.4504 35.0791 87.4054 34.9222C87.3829 34.7429 87.3492 34.5525 87.3042 34.3508C87.2592 34.1492 87.2142 33.9587 87.1693 33.7794L85.4823 28.032H77.621L76.069 33.1744C75.979 33.4881 75.9003 33.7794 75.8328 34.0483C75.7654 34.3172 75.7091 34.5637 75.6642 34.7878C75.6192 34.9894 75.5967 35.1911 75.5967 35.3928C75.5967 35.7737 75.6866 36.0538 75.8666 36.233C76.069 36.4123 76.3952 36.5019 76.845 36.5019H79.1056V36.838H71.5817ZM77.7222 27.6959H85.3811L82.9856 19.3604C82.8731 18.9571 82.7382 18.4753 82.5807 17.9152C82.4233 17.355 82.2658 16.7724 82.1084 16.1674C81.9509 15.5624 81.7935 14.9798 81.636 14.4196C81.546 14.823 81.4448 15.2263 81.3324 15.6296C81.2199 16.033 81.0962 16.4475 80.9612 16.8732C80.8488 17.2766 80.725 17.6799 80.5901 18.0832C80.4776 18.4865 80.3539 18.8899 80.219 19.2932L77.7222 27.6959Z" fill="#465C50"/>
<path d="M99.0985 36.838V36.5019H100.111C100.561 36.5019 100.92 36.4459 101.19 36.3339C101.483 36.2218 101.696 36.009 101.831 35.6953C101.989 35.3816 102.068 34.9334 102.068 34.3508V13.176H100.381C99.121 13.176 98.1088 13.3329 97.344 13.6466C96.5793 13.9379 96.017 14.4421 95.6571 15.1591C95.2972 15.8761 95.0723 16.8508 94.9823 18.0832L94.8811 19.6629H94.5437L94.7798 12.8399H115.766L116.002 19.6629H115.664L115.53 18.0832C115.44 16.8508 115.215 15.8761 114.855 15.1591C114.495 14.4421 113.933 13.9379 113.168 13.6466C112.403 13.3329 111.391 13.176 110.131 13.176H108.478V34.418C108.478 34.9782 108.557 35.4152 108.714 35.7289C108.872 36.0426 109.097 36.2554 109.389 36.3675C109.681 36.4571 110.03 36.5019 110.435 36.5019H111.447V36.838H99.0985Z" fill="#465C50"/>
<path d="M116.731 36.838V36.5019H118.182C118.43 36.5019 118.666 36.4459 118.891 36.3339C119.116 36.2218 119.296 36.0314 119.431 35.7625C119.566 35.4936 119.633 35.1351 119.633 34.6869V15.0583C119.633 14.5877 119.554 14.218 119.397 13.9491C119.262 13.6578 119.071 13.4561 118.823 13.3441C118.576 13.2321 118.306 13.176 118.014 13.176H116.731V12.8399H128.911V13.176H127.562C127.179 13.176 126.876 13.2321 126.651 13.3441C126.448 13.4561 126.291 13.6466 126.179 13.9155C126.066 14.162 126.01 14.5093 126.01 14.9574V36.5019H129.755C131.262 36.5019 132.465 36.3115 133.365 35.9305C134.287 35.5496 134.973 34.9222 135.423 34.0483C135.873 33.1744 136.154 31.9869 136.267 30.4856L136.334 29.2084H136.671L136.402 36.838H116.731Z" fill="#465C50"/>
<path d="M140.827 36.838V36.5019H141.941C142.435 36.5019 142.84 36.4459 143.155 36.3339C143.47 36.1994 143.706 35.9753 143.864 35.6616C144.044 35.3255 144.134 34.855 144.134 34.25V28.5026L137.791 14.9574C137.611 14.5093 137.408 14.162 137.183 13.9155C136.981 13.6466 136.756 13.4561 136.509 13.3441C136.284 13.2321 136.025 13.176 135.733 13.176H135.631V12.8399H147.44V13.176H147.035C146.158 13.176 145.517 13.2769 145.112 13.4785C144.707 13.6802 144.505 14.0163 144.505 14.4869C144.505 14.7558 144.55 15.047 144.64 15.3607C144.752 15.6744 144.91 16.0554 145.112 16.5035L148.385 23.7634C148.587 24.122 148.745 24.4469 148.857 24.7381C148.992 25.007 149.116 25.2871 149.228 25.5784C149.363 25.8697 149.521 26.2058 149.701 26.5867C149.881 26.9677 150.105 27.427 150.375 27.9648C150.488 27.6511 150.612 27.3262 150.747 26.9901C150.881 26.6316 151.028 26.2842 151.185 25.9481L155.031 16.638C155.256 16.1002 155.414 15.6632 155.504 15.3271C155.616 14.991 155.672 14.6997 155.672 14.4533C155.672 13.9827 155.504 13.6578 155.166 13.4785C154.829 13.2769 154.3 13.176 153.581 13.176H152.062V12.8399H158.979V13.176H158.608C158.225 13.176 157.877 13.2433 157.562 13.3777C157.247 13.4897 156.955 13.7026 156.685 14.0163C156.437 14.33 156.19 14.7782 155.942 15.3607L150.544 28.3345V34.2836C150.544 34.8886 150.623 35.3479 150.78 35.6616C150.938 35.9753 151.151 36.1994 151.421 36.3339C151.691 36.4459 152.006 36.5019 152.366 36.5019H153.884V36.838H140.827Z" fill="#465C50"/>
</g>
<path id="NEATLY (Stroke)" fill-rule="evenodd" clip-rule="evenodd" d="M24.6191 37.3182V36.0218H27.0243C27.3908 36.0218 27.6693 35.9814 27.8732 35.9155C28.0379 35.85 28.1548 35.7416 28.2371 35.5672C28.3336 35.3392 28.3979 34.9785 28.3979 34.4517V15.0919C28.3979 14.5786 28.331 14.2652 28.2464 14.0966L28.2315 14.067C28.1645 13.9069 28.0789 13.8337 27.973 13.7954L27.9469 13.7859L27.9221 13.7736C27.7788 13.7022 27.5864 13.6562 27.3279 13.6562H24.6191V12.3598H34.8848L44.9639 28.6565V15.0919C44.9639 14.6313 44.8991 14.3365 44.8124 14.1638L44.7975 14.1342C44.7219 13.9534 44.6268 13.8595 44.5219 13.8072L44.5053 13.7989L44.4894 13.7894C44.3532 13.708 44.1728 13.6562 43.9277 13.6562H40.949V12.3598H69.7585L70.0305 19.6389H68.754L68.6118 18.128C68.5026 16.9529 68.2651 16.0581 67.9237 15.418L67.9209 15.4126C67.5916 14.7759 67.1082 14.3433 66.4566 14.0951L66.4403 14.0889C65.7799 13.8098 64.8729 13.6562 63.6934 13.6562H60.3291V23.653H68.0554V24.9494H60.3291V36.0218H64.7393C65.9428 36.0218 66.8605 35.8681 67.5201 35.5893L67.5248 35.5874C68.1874 35.3156 68.6745 34.8767 69.0034 34.26C69.3423 33.6245 69.5695 32.7235 69.6569 31.5263L69.6577 31.5149L69.8012 30.0391H71.0765L70.8044 37.3182H50.1543V36.0218H52.0196C52.268 36.0218 52.4554 35.9793 52.5968 35.9126C52.7164 35.8368 52.816 35.7222 52.8905 35.5442L52.9033 35.5136C52.9953 35.3302 53.0559 35.0736 53.0559 34.7206V15.1255C53.0559 14.5601 52.9871 14.228 52.9043 14.063C52.8158 13.8867 52.7116 13.8032 52.5971 13.7617L52.5827 13.7565C52.4252 13.6938 52.2293 13.6562 51.9858 13.6562H47.3353C47.0678 13.6562 46.8606 13.7082 46.6981 13.7943C46.5854 13.8642 46.4816 13.9822 46.4019 14.1887C46.32 14.4007 46.2653 14.7366 46.2653 15.2263V37.3182H42.7475L29.6993 16.2155V34.4517C29.6993 34.9794 29.7414 35.3585 29.8099 35.6097C29.8841 35.7925 29.9728 35.8822 30.0577 35.9295C30.2052 35.984 30.4246 36.0218 30.7356 36.0218H33.7143V37.3182H24.6191ZM29.8397 36.3579C29.6241 36.2441 29.4616 36.0456 29.3523 35.7625C29.3234 35.6617 29.2991 35.5482 29.2795 35.422C29.2381 35.1553 29.2173 34.8319 29.2173 34.4517V14.5205L43.0167 36.838H45.7833V15.2263C45.7833 15.1806 45.7838 15.1358 45.7847 15.0919C45.7907 14.7937 45.817 14.5361 45.8638 14.319C45.8878 14.2074 45.9172 14.1065 45.952 14.0163C46.0645 13.725 46.2332 13.5122 46.4581 13.3777C46.4964 13.3569 46.5358 13.3377 46.5763 13.3201C46.7972 13.2241 47.0502 13.1761 47.3353 13.1761H49.6971V12.8399H41.431V13.1761H43.9277C44.1938 13.1761 44.4278 13.2241 44.6297 13.3201C44.6667 13.3377 44.7026 13.3569 44.7374 13.3777C44.9623 13.4898 45.131 13.6802 45.2435 13.9491C45.297 14.0556 45.3398 14.1797 45.3721 14.3213C45.4213 14.5373 45.4459 14.7941 45.4459 15.0919V30.3512L34.6156 12.8399H25.1011V13.1761H27.3279C27.6195 13.1761 27.8724 13.2241 28.0869 13.3201C28.1041 13.3278 28.121 13.3358 28.1377 13.3441C28.3851 13.4337 28.565 13.613 28.6775 13.8819C28.6984 13.9235 28.7177 13.9684 28.7353 14.0165C28.7869 14.157 28.8247 14.325 28.8487 14.5205C28.857 14.5885 28.8637 14.6598 28.8687 14.7344C28.872 14.783 28.8745 14.8331 28.8764 14.8846C28.8787 14.9513 28.8799 15.0204 28.8799 15.0919V34.4517C28.8799 34.8244 28.8501 35.1427 28.7903 35.4063C28.7602 35.5388 28.7226 35.6575 28.6775 35.7625C28.5463 36.0456 28.3407 36.2441 28.0608 36.3579C28.0527 36.3611 28.0446 36.3643 28.0365 36.3675C27.7665 36.4571 27.4291 36.5019 27.0243 36.5019H25.1011V36.838H33.2323V36.5019H30.7356C30.3757 36.5019 30.0833 36.4571 29.8584 36.3675C29.8521 36.3643 29.8458 36.3611 29.8397 36.3579ZM52.8293 36.3339C52.8126 36.3422 52.7957 36.3502 52.7785 36.3579C52.5641 36.4539 52.3111 36.5019 52.0196 36.5019H50.6363V36.838H70.34L70.5762 30.5192H70.2388L70.1376 31.5611C70.1104 31.934 70.0698 32.2833 70.0158 32.609C69.8913 33.3598 69.6957 33.9852 69.4291 34.4853C69.0467 35.2023 68.4731 35.7177 67.7084 36.0314C67.3768 36.1715 66.9958 36.2803 66.5655 36.3579C66.0325 36.4539 65.4238 36.5019 64.7393 36.5019H59.8471V24.4693H67.5734V24.1332H59.8471V13.1761H63.6934C64.3654 13.1761 64.9651 13.2241 65.4926 13.3201C65.9184 13.3976 66.2971 13.5065 66.6287 13.6466C67.3935 13.9379 67.967 14.4533 68.3494 15.1927C68.6304 15.7196 68.8385 16.3795 68.9737 17.1726C69.0225 17.4588 69.0618 17.7623 69.0917 18.0832L69.1929 19.1588H69.5303L69.4887 18.0466L69.2941 12.8399H50.6363V13.1761H51.9858C52.2782 13.1761 52.5369 13.2209 52.7618 13.3105C52.7704 13.3136 52.7789 13.3168 52.7873 13.3201C53.0224 13.4126 53.2051 13.5887 53.3354 13.8483C53.4704 14.1172 53.5378 14.5429 53.5378 15.1255V34.7206C53.5378 35.1239 53.4704 35.46 53.3354 35.7289C53.2229 35.9978 53.0542 36.1994 52.8293 36.3339ZM71.0993 37.3182V36.0218H72.7959C73.1499 36.0218 73.4486 35.9737 73.6989 35.8868C73.9143 35.7917 74.1268 35.6206 74.3303 35.3441L74.3334 35.3399C74.5594 35.0398 74.7746 34.6026 74.9673 34.0066L81.4793 12.3598H87.0465L94.1682 34.1552C94.3593 34.6397 94.555 35.0259 94.752 35.3216C94.9345 35.5746 95.1322 35.7513 95.3413 35.8674C95.5876 35.9694 95.8534 36.0218 96.1435 36.0218H96.7942V37.3182H84.2913V36.0218H86.1904C86.6527 36.0218 86.8059 35.9212 86.8423 35.8804C86.9259 35.7868 86.9905 35.6413 86.9905 35.3928C86.9905 35.2823 86.9747 35.1698 86.9416 35.0541L86.9313 35.0185L86.9267 34.9818C86.9064 34.8194 86.8754 34.644 86.8333 34.455C86.7899 34.2604 86.7466 34.0771 86.7035 33.905L85.1206 28.5122H77.979L76.532 33.3064C76.5317 33.3074 76.5314 33.3085 76.5311 33.3095C76.4428 33.6177 76.3658 33.9028 76.3 34.1648C76.234 34.4278 76.1796 34.6667 76.1363 34.8819L76.1343 34.892C76.0968 35.0603 76.0782 35.227 76.0782 35.3928C76.0782 35.691 76.1455 35.8249 76.1975 35.8834C76.2762 35.9457 76.4595 36.0218 76.8446 36.0218H79.5871V37.3182H71.0993ZM75.8661 36.233C75.6862 36.0538 75.5962 35.7737 75.5962 35.3928C75.5962 35.2601 75.606 35.1274 75.6255 34.9947C75.6356 34.9257 75.6483 34.8567 75.6637 34.7878C75.6965 34.6244 75.7353 34.4492 75.78 34.262C75.7806 34.2597 75.7812 34.2573 75.7817 34.2549C75.7979 34.1876 75.8147 34.1187 75.8324 34.0483C75.8999 33.7794 75.9786 33.4882 76.0686 33.1745L77.6206 28.032H85.4819L87.1688 33.7794C87.2138 33.9587 87.2588 34.1492 87.3038 34.3508C87.3488 34.5525 87.3825 34.743 87.405 34.9222C87.45 35.0791 87.4725 35.2359 87.4725 35.3928C87.4725 35.7289 87.3825 35.9978 87.2026 36.1994C87.1468 36.2619 87.0759 36.3147 86.9899 36.3579C86.7984 36.4539 86.5319 36.5019 86.1904 36.5019H84.7733V36.838H96.3122V36.5019H96.1435C95.8393 36.5019 95.5512 36.4539 95.2792 36.3579C95.2294 36.3403 95.1801 36.3211 95.1313 36.3003C94.8389 36.1434 94.5802 35.9081 94.3553 35.5944C94.1304 35.2583 93.9167 34.8326 93.7143 34.3172L86.6965 12.8399H81.838L75.4275 34.1492C75.365 34.3429 75.2993 34.5238 75.2304 34.6918C75.2292 34.6948 75.228 34.6978 75.2267 34.7007C75.2045 34.7547 75.1819 34.8074 75.159 34.8588C75.0239 35.1614 74.8773 35.4178 74.719 35.628C74.4716 35.9641 74.1904 36.1994 73.8755 36.3339C73.8522 36.3422 73.8286 36.3502 73.8047 36.3579C73.507 36.4539 73.1707 36.5019 72.7959 36.5019H71.5813V36.838H79.1051V36.5019H76.8446C76.5153 36.5019 76.2523 36.4539 76.0556 36.3579C75.9836 36.3227 75.9204 36.2811 75.8661 36.233ZM85.3806 27.6959L82.9851 19.3604C82.8727 18.9571 82.7377 18.4754 82.5803 17.9152C82.4228 17.355 82.2654 16.7724 82.1079 16.1674C82.0383 15.8999 81.9687 15.6368 81.8991 15.378C81.8481 15.1888 81.7972 15.0019 81.7463 14.8173C81.7094 14.6836 81.6725 14.551 81.6356 14.4197C81.5642 14.7395 81.4858 15.0594 81.4003 15.3792C81.378 15.4627 81.3552 15.5462 81.3319 15.6296C81.2195 16.033 81.0957 16.4475 80.9608 16.8732C80.8483 17.2766 80.7246 17.6799 80.5897 18.0832C80.4772 18.4866 80.3535 18.8899 80.2185 19.2932L77.7218 27.6959H85.3806ZM78.3671 27.2157H84.7413L82.5207 19.4889C82.4084 19.086 82.2735 18.6046 82.1161 18.0446C81.9582 17.4828 81.8004 16.8989 81.6426 16.2929C81.573 16.5284 81.4997 16.7675 81.4229 17.0099C81.3099 17.4146 81.1859 17.8192 81.0508 18.2235C80.9377 18.6283 80.8136 19.0329 80.6784 19.4372L78.3671 27.2157ZM98.6161 37.3182V36.0218H100.11C100.527 36.0218 100.816 35.9688 101.005 35.8906L101.017 35.8855C101.176 35.8246 101.299 35.713 101.388 35.5061L101.399 35.4802C101.508 35.2633 101.585 34.9022 101.585 34.3508V13.6562H100.38C99.1539 13.6562 98.2114 13.8099 97.5271 14.0906L97.5158 14.0952C96.8615 14.3445 96.3927 14.7663 96.0877 15.3738C95.7673 16.0124 95.5504 16.9169 95.4627 18.1161C95.4627 18.1167 95.4628 18.1154 95.4627 18.1161L95.3328 20.1431H94.0443L94.3138 12.3598H116.231L116.249 12.884V12.3598H129.393V13.6562H127.561C127.227 13.6562 127.009 13.7052 126.876 13.7687C126.793 13.8173 126.702 13.9109 126.623 14.1002L126.617 14.1143C126.546 14.2705 126.491 14.5386 126.491 14.9574V36.0218H129.754C131.228 36.0218 132.359 35.8344 133.176 35.4886L133.18 35.487C133.998 35.1491 134.597 34.6004 134.994 33.8292C135.402 33.0355 135.675 31.9205 135.785 30.4551C135.785 30.4534 135.785 30.4516 135.785 30.4499L135.876 28.7282H137.17L136.866 37.3182H116.249V36.0218H118.182C118.353 36.0218 118.516 35.9837 118.675 35.9044C118.789 35.8476 118.901 35.7428 118.999 35.5478C119.088 35.3702 119.151 35.0941 119.151 34.6869V15.0583C119.151 14.6325 119.078 14.3582 118.98 14.191L118.968 14.1712L118.959 14.1503C118.863 13.9432 118.747 13.8371 118.623 13.7812C118.443 13.6997 118.242 13.6562 118.013 13.6562H116.276L116.5 20.1431H115.221L115.048 18.1181C114.961 16.9179 114.744 16.0127 114.423 15.3738C114.118 14.7663 113.649 14.3443 112.995 14.0951L112.984 14.0907C112.299 13.81 111.357 13.6562 110.131 13.6562H108.96V34.4181C108.96 34.9434 109.035 35.2953 109.145 35.5141C109.252 35.7286 109.387 35.8486 109.547 35.9137C109.779 35.9824 110.072 36.0218 110.434 36.0218H111.929V37.3182H98.6161ZM109.364 36.3579C109.084 36.2435 108.867 36.0338 108.714 35.7289C108.556 35.4152 108.478 34.9782 108.478 34.4181V13.1761H110.131C110.828 13.1761 111.449 13.2241 111.994 13.3201C112.435 13.3976 112.826 13.5065 113.167 13.6466C113.932 13.9379 114.494 14.4421 114.854 15.1591C115.122 15.6926 115.315 16.3688 115.433 17.1876C115.474 17.4693 115.506 17.7678 115.529 18.0832L115.664 19.6629H116.001L115.765 12.8399H94.7794L94.5432 19.6629H94.8806L94.9818 18.0832C95.0125 17.6637 95.0587 17.274 95.1207 16.9142C95.2406 16.217 95.4193 15.632 95.6566 15.1591C96.0165 14.4421 96.5788 13.9379 97.3436 13.6466C97.6852 13.5065 98.0762 13.3976 98.5166 13.3201C99.062 13.2241 99.6832 13.1761 100.38 13.1761H102.067V34.3508C102.067 34.9334 101.988 35.3816 101.831 35.6953C101.696 36.009 101.482 36.2218 101.19 36.3339C101.17 36.3422 101.149 36.3502 101.128 36.3579C100.866 36.4539 100.527 36.5019 100.11 36.5019H99.098V36.838H111.447V36.5019H110.434C110.03 36.5019 109.681 36.4571 109.389 36.3675C109.38 36.3644 109.372 36.3612 109.364 36.3579ZM136.093 31.906C135.943 32.757 135.72 33.4711 135.423 34.0483C134.973 34.9222 134.287 35.5496 133.365 35.9305C132.917 36.1202 132.393 36.2626 131.795 36.3579C131.191 36.4539 130.511 36.5019 129.754 36.5019H126.009V14.9574C126.009 14.5093 126.066 14.162 126.178 13.9155C126.291 13.6466 126.448 13.4561 126.65 13.3441C126.667 13.3358 126.684 13.3278 126.702 13.3201C126.921 13.2241 127.207 13.1761 127.561 13.1761H128.911V12.8399H116.731V13.1761H118.013C118.284 13.1761 118.535 13.2241 118.767 13.3201C118.786 13.3278 118.805 13.3358 118.823 13.3441C119.07 13.4561 119.262 13.6578 119.396 13.9491C119.554 14.218 119.633 14.5877 119.633 15.0583V34.6869C119.633 35.1351 119.565 35.4936 119.43 35.7625C119.295 36.0314 119.115 36.2218 118.89 36.3339C118.874 36.3422 118.857 36.3502 118.84 36.3579C118.63 36.4539 118.411 36.5019 118.182 36.5019H116.731V36.838H136.401L136.671 29.2084H136.334L136.266 30.4856C136.228 30.9952 136.17 31.4687 136.093 31.906ZM140.345 37.3182V36.0218H141.94C142.395 36.0218 142.735 35.9707 142.978 35.8867C143.178 35.798 143.326 35.6575 143.432 35.4469L143.438 35.4356C143.565 35.1983 143.651 34.8179 143.651 34.25V28.609L137.342 15.136C137.175 14.7193 136.999 14.4281 136.826 14.2385L136.811 14.2217L136.797 14.2036C136.632 13.9838 136.467 13.8528 136.309 13.7812L136.292 13.7739C136.144 13.7002 135.962 13.6562 135.732 13.6562H135.149V12.3598H147.922V13.6562H147.035C146.175 13.6562 145.628 13.7583 145.327 13.908C145.194 13.9743 145.117 14.0504 145.069 14.1289C145.021 14.2086 144.986 14.3211 144.986 14.4869C144.986 14.699 145.021 14.9406 145.099 15.2141C145.205 15.5089 145.355 15.8724 145.551 16.3065L148.815 23.5472C149.016 23.9043 149.178 24.2369 149.298 24.544C149.434 24.8163 149.559 25.0988 149.672 25.3912C149.805 25.6779 149.96 26.0083 150.136 26.3823C150.192 26.5007 150.253 26.627 150.318 26.7612C150.449 26.4162 150.591 26.0809 150.743 25.7552L154.585 16.4552C154.807 15.926 154.956 15.5096 155.038 15.2034L155.045 15.175C155.148 14.8684 155.19 14.6309 155.19 14.4533C155.19 14.1105 155.08 13.977 154.939 13.9022L154.918 13.8908C154.695 13.7575 154.274 13.6562 153.58 13.6562H151.58V12.3598H159.46V13.6562H158.607C158.283 13.6562 158 13.713 157.751 13.8191L157.724 13.8308C157.507 13.9079 157.283 14.0604 157.057 14.321C156.849 14.5874 156.623 14.9892 156.387 15.5459C156.386 15.5466 156.387 15.5453 156.387 15.5459L151.026 28.4301V34.2836C151.026 34.8608 151.103 35.2319 151.211 35.4469C151.326 35.6768 151.466 35.8156 151.622 35.8972C151.819 35.9759 152.063 36.0218 152.366 36.0218H154.366V37.3182H140.345ZM151.421 36.3339C151.151 36.1994 150.937 35.9754 150.78 35.6617C150.622 35.348 150.544 34.8886 150.544 34.2836V28.3345L155.355 16.7723L155.942 15.3608C155.989 15.2497 156.036 15.1436 156.083 15.0423C156.284 14.6122 156.484 14.2702 156.684 14.0163C156.954 13.7026 157.247 13.4898 157.561 13.3777C157.61 13.3569 157.66 13.3377 157.71 13.3201C157.985 13.2241 158.284 13.1761 158.607 13.1761H158.978V12.8399H152.062V13.1761H153.58C154.077 13.1761 154.483 13.2241 154.797 13.3201C154.938 13.3632 155.061 13.4161 155.166 13.4786C155.503 13.6578 155.672 13.9827 155.672 14.4533C155.672 14.5859 155.656 14.7314 155.623 14.8899C155.603 14.9864 155.578 15.0877 155.546 15.1938C155.545 15.1948 155.545 15.1958 155.545 15.1968C155.532 15.2395 155.518 15.2829 155.503 15.3271C155.413 15.6633 155.256 16.1002 155.031 16.638L151.185 25.9481C151.027 26.2843 150.881 26.6316 150.746 26.9901C150.698 27.1107 150.651 27.2298 150.605 27.3475C150.524 27.5579 150.447 27.7636 150.375 27.9648C150.338 27.8908 150.302 27.8184 150.266 27.7474C150.201 27.6173 150.139 27.4922 150.08 27.372C149.937 27.081 149.81 26.8193 149.7 26.5867C149.52 26.2058 149.363 25.8697 149.228 25.5784C149.115 25.2871 148.992 25.007 148.857 24.7382C148.744 24.4469 148.587 24.122 148.384 23.7634L145.112 16.5035C144.909 16.0554 144.752 15.6745 144.639 15.3608C144.549 15.0471 144.504 14.7558 144.504 14.4869C144.504 14.0163 144.707 13.6802 145.112 13.4786C145.237 13.4161 145.385 13.3632 145.556 13.3201C145.937 13.2241 146.429 13.1761 147.035 13.1761H147.44V12.8399H135.631V13.1761H135.732C136.003 13.1761 136.245 13.2241 136.457 13.3201C136.475 13.3278 136.491 13.3358 136.508 13.3441C136.756 13.4561 136.98 13.6466 137.183 13.9155C137.408 14.162 137.61 14.5093 137.79 14.9574L144.133 28.5026V34.25C144.133 34.855 144.043 35.3255 143.863 35.6617C143.706 35.9754 143.47 36.1994 143.155 36.3339C143.131 36.3422 143.108 36.3502 143.083 36.3579C142.779 36.4539 142.398 36.5019 141.94 36.5019H140.827V36.838H153.884V36.5019H152.366C152.032 36.5019 151.738 36.4539 151.482 36.3579C151.461 36.3502 151.441 36.3422 151.421 36.3339Z" fill="#2F3E35"/>
<g id="Vector">
<path d="M17.5961 12.187C16.8867 11.9694 13.2582 10.7727 12.9907 10.6639C12.8628 10.6155 12.7697 10.3738 12.7232 9.96277C12.3394 6.89237 11.7347 3.73731 11.4672 3.38676C11.2695 3.12082 10.5949 3.20544 10.4089 3.50764C10.2228 3.80984 9.3622 6.86817 8.85049 9.0924L8.51324 10.543C1.90752 12.7188 1.54697 12.6705 4.53583 13.6255L7.17581 14.4716C8.67605 14.9552 8.71093 14.9672 8.79234 15.354C8.90864 15.9101 9.66457 18.6179 9.95532 19.9113C10.5717 22.6916 11.8277 20.9751 12.9326 15.8013L13.1884 14.6167C13.328 14.5925 14.2118 14.5079 18.0264 13.6497C18.8986 13.4442 18.6428 12.5013 17.5961 12.187ZM15.9447 12.7793C15.8516 12.8639 13.3047 13.5046 12.8046 13.5046C12.1999 13.5046 12.0603 13.8068 11.3741 16.6475C10.9206 18.5212 10.8857 18.5574 10.6298 17.4695C10.3158 16.1035 9.67619 14.5079 9.59478 14.1332C9.525 13.7947 8.87375 13.553 6.35008 12.9244C5.08244 12.6101 4.88473 12.5013 5.36155 12.3562C5.95467 12.1749 8.80396 11.2078 9.12959 11.2078C9.44359 11.2078 9.71109 10.9661 9.80412 10.6034L10.7113 6.92863C10.8741 6.28795 10.8741 6.28794 11.3276 8.79019C11.851 11.6067 11.7928 11.4858 12.6302 11.6672C13.6768 11.8968 16.0493 12.6826 15.9447 12.7793Z" fill="#E76B39"/>
<path d="M15.9447 12.7793C15.8516 12.8639 13.3047 13.5046 12.8046 13.5046C12.1999 13.5046 12.0603 13.8068 11.3741 16.6475C10.9206 18.5212 10.8857 18.5574 10.6298 17.4695C10.3158 16.1035 9.67619 14.5079 9.59478 14.1332C9.525 13.7947 8.87375 13.553 6.35008 12.9244C5.08244 12.6101 4.88473 12.5013 5.36155 12.3562C5.95467 12.1749 8.80396 11.2078 9.12959 11.2078C9.44359 11.2078 9.71109 10.9661 9.80412 10.6034L10.7113 6.92863C10.8741 6.28795 10.8741 6.28794 11.3276 8.79019C11.851 11.6067 11.7928 11.4858 12.6302 11.6672C13.6768 11.8968 16.0493 12.6826 15.9447 12.7793Z" fill="#E76B39"/>
</g>
</g>
</svg>
